<svg width="32" height="32" viewBox="0 0 32 32" fill="none" xmlns="http://www.w3.org/2000/svg">
<g clip-path="url(#clip0_15_787)">
<path d="M27 9H5C4.44772 9 4 9.44772 4 10V26C4 26.5523 4.44772 27 5 27H27C27.5523 27 28 26.5523 28 26V10C28 9.44772 27.5523 9 27 9Z" stroke="#116098" stroke-width="3" stroke-linecap="round" stroke-linejoin="round"/>
<path d="M21 9V6.5C21 5.96957 20.7893 5.46086 20.4142 5.08579C20.0391 4.71071 19.5304 4.5 19 4.5H13C12.4696 4.5 11.9609 4.71071 11.5858 5.08579C11.2107 5.46086 11 5.96957 11 6.5V9" stroke="#116098" stroke-width="3" stroke-linecap="round" stroke-linejoin="round"/>
<path d="M16 15V21" stroke="#116098" stroke-width="3" stroke-linecap="round" stroke-linejoin="round"/>
<path d="M19 18H13" stroke="#116098" stroke-width="3" stroke-linecap="round" stroke-linejoin="round"/>
</g>
<defs>
<clipPath id="clip0_15_787">
<rect width="32" height="32" fill="white"/>
</clipPath>
</defs>
</svg>
